/* XPM */
static const char* catapult_xpm[] = {
"32 32 362 2",
"  	c None",
". 	c #02027F",
"+ 	c #00007B",
"@ 	c #020276",
"# 	c #02028B",
"$ 	c #4D4DAE",
"% 	c #9898CE",
"& 	c #4A4AA6",
"* 	c #5858AA",
"= 	c #9393C6",
"- 	c #363790",
"; 	c #02028E",
"> 	c #3232A8",
", 	c #FBFBFD",
"' 	c #FFFFFF",
") 	c #FEFEFE",
"! 	c #EEEEF5",
"~ 	c #242582",
"{ 	c #000099",
"] 	c #8080CC",
"^ 	c #E5E5E5",
"/ 	c #F7F7F7",
"( 	c #7D7DB5",
"_ 	c #02028F",
": 	c #00009A",
"< 	c #8888CF",
"[ 	c #A0A0A0",
"} 	c #808080",
"| 	c #EEEEEE",
"1 	c #565655",
"2 	c #373737",
"3 	c #48485B",
"4 	c #100655",
"5 	c #BE435A",
"6 	c #BF445A",
"7 	c #7D3326",
"8 	c #4B2505",
"9 	c #000091",
"0 	c #000095",
"a 	c #5656B8",
"b 	c #7E7E7E",
"c 	c #2F2D26",
"d 	c #9F8729",
"e 	c #BF4956",
"f 	c #C0475D",
"g 	c #BE445B",
"h 	c #CB4861",
"i 	c #AA3D4B",
"j 	c #B7444F",
"k 	c #A83F44",
"l 	c #3C1D05",
"m 	c #00008A",
"n 	c #000077",
"o 	c #2E146E",
"p 	c #C04A60",
"q 	c #BF465D",
"r 	c #CB4860",
"s 	c #CD4B62",
"t 	c #C5645F",
"u 	c #C87350",
"v 	c #9F5962",
"w 	c #24172C",
"x 	c #743706",
"y 	c #973C36",
"z 	c #A33D44",
"A 	c #000074",
"B 	c #000064",
"C 	c #541E2D",
"D 	c #BA415A",
"E 	c #C94760",
"F 	c #C94761",
"G 	c #C84761",
"H 	c #A54E6B",
"I 	c #C07273",
"J 	c #D5C904",
"K 	c #FAF5AE",
"L 	c #D2CD8D",
"M 	c #E9DB05",
"N 	c #998B03",
"O 	c #713606",
"P 	c #512705",
"Q 	c #000067",
"R 	c #000092",
"S 	c #000090",
"T 	c #000086",
"U 	c #00007A",
"V 	c #883050",
"W 	c #8D3266",
"X 	c #06027D",
"Y 	c #00007F",
"Z 	c #767017",
"` 	c #C0B608",
" .	c #DED109",
"..	c #EFE105",
"+.	c #F0E20F",
"@.	c #EEE563",
"#.	c #A49903",
"$.	c #703604",
"%.	c #723606",
"&.	c #562A06",
"*.	c #381B03",
"=.	c #000068",
"-.	c #00008D",
";.	c #000094",
">.	c #00008F",
",.	c #00007C",
"'.	c #000041",
").	c #00007D",
"!.	c #000070",
"~.	c #BDB205",
"{.	c #5F5A01",
"].	c #0D0C00",
"^.	c #272501",
"/.	c #4E4902",
"(.	c #847B02",
"_.	c #6F3404",
":.	c #582B06",
"<.	c #29141F",
"[.	c #000088",
"}.	c #000081",
"|.	c #000078",
"1.	c #00006D",
"2.	c #000050",
"3.	c #000076",
"4.	c #6E6727",
"5.	c #E6D905",
"6.	c #615B02",
"7.	c #3A0701",
"8.	c #931202",
"9.	c #652F04",
"0.	c #753706",
"a.	c #673106",
"b.	c #3C1C0F",
"c.	c #00005F",
"d.	c #000075",
"e.	c #00006C",
"f.	c #00006E",
"g.	c #000079",
"h.	c #000072",
"i.	c #00006A",
"j.	c #00005A",
"k.	c #060675",
"l.	c #4C4C9B",
"m.	c #878698",
"n.	c #AEAB7D",
"o.	c #AB8913",
"p.	c #663005",
"q.	c #6E3406",
"r.	c #4E2706",
"s.	c #060346",
"t.	c #000066",
"u.	c #8A3050",
"v.	c #AF3E56",
"w.	c #000001",
"x.	c #000015",
"y.	c #00005E",
"z.	c #000063",
"A.	c #000051",
"B.	c #4E4E94",
"C.	c #DDDDEB",
"D.	c #68350B",
"E.	c #552A06",
"F.	c #655D69",
"G.	c #0B0B59",
"H.	c #00004C",
"I.	c #000028",
"J.	c #CD4961",
"K.	c #000000",
"L.	c #00000B",
"M.	c #000039",
"N.	c #02023C",
"O.	c #8181A5",
"P.	c #FEFEFF",
"Q.	c #70380A",
"R.	c #713505",
"S.	c #766353",
"T.	c #CCCCD8",
"U.	c #262665",
"V.	c #000048",
"W.	c #00003C",
"X.	c #00002D",
"Y.	c #59251B",
"Z.	c #C1445B",
"`.	c #A63E48",
" +	c #803A0F",
".+	c #813A0F",
"++	c #783908",
"@+	c #773807",
"#+	c #763908",
"$+	c #773A08",
"%+	c #793B09",
"&+	c #5F2D08",
"*+	c #412824",
"=+	c #515185",
"-+	c #04045E",
";+	c #000055",
">+	c #000049",
",+	c #00003D",
"'+	c #000031",
")+	c #000020",
"!+	c #CC4961",
"~+	c #C04754",
"{+	c #783906",
"]+	c #773906",
"^+	c #703506",
"/+	c #1F0E4A",
"(+	c #0B0567",
"_+	c #02016E",
":+	c #000060",
"<+	c #000054",
"[+	c #000030",
"}+	c #000024",
"|+	c #3F1F04",
"1+	c #A93E4B",
"2+	c #A73F47",
"3+	c #4F2705",
"4+	c #512805",
"5+	c #522806",
"6+	c #552906",
"7+	c #572A06",
"8+	c #331839",
"9+	c #000083",
"0+	c #00005D",
"a+	c #000046",
"b+	c #00003A",
"c+	c #00002E",
"d+	c #000023",
"e+	c #DBDBE5",
"f+	c #948980",
"g+	c #100955",
"h+	c #000069",
"i+	c #000061",
"j+	c #000057",
"k+	c #00004D",
"l+	c #000042",
"m+	c #000037",
"n+	c #00002B",
"o+	c #00001F",
"p+	c #FCFCFD",
"q+	c #21216E",
"r+	c #0F0750",
"s+	c #502510",
"t+	c #592A08",
"u+	c #3C375A",
"v+	c #000047",
"w+	c #000032",
"x+	c #000027",
"y+	c #000019",
"z+	c #BDBDCC",
"A+	c #505082",
"B+	c #000062",
"C+	c #482214",
"D+	c #5F300A",
"E+	c #3D3C61",
"F+	c #01013E",
"G+	c #000036",
"H+	c #00002C",
"I+	c #080826",
"J+	c #020221",
"K+	c #C4C4D0",
"L+	c #C7C7CE",
"M+	c #060652",
"N+	c #4B3B47",
"O+	c #754822",
"P+	c #D0D0D5",
"Q+	c #9B9BA5",
"R+	c #9898A1",
"S+	c #DEDEDF",
"T+	c #282845",
"U+	c #DFDFE5",
"V+	c #D8D8DB",
"W+	c #B2B0B7",
"X+	c #5A3211",
"Y+	c #A39487",
"Z+	c #4B4B60",
"`+	c #00001B",
" @	c #F6F6F7",
".@	c #A7998D",
"+@	c #673309",
"@@	c #D2CDC9",
"#@	c #60606F",
"$@	c #000016",
"%@	c #F5F5F6",
"&@	c #FAFAFA",
"*@	c #6E5037",
"=@	c #6C3C15",
"-@	c #EEEDEC",
";@	c #5E5E6A",
">@	c #000011",
",@	c #CDCDD2",
"'@	c #CBC6C2",
")@	c #572B08",
"!@	c #7E644F",
"~@	c #FCFCFC",
"{@	c #3D3D48",
"]@	c #00000D",
"^@	c #94949E",
"/@	c #988779",
"(@	c #8B8886",
"_@	c #06060E",
":@	c #000002",
"<@	c #E3E3E5",
"[@	c #4E4E4E",
"}@	c #FDFDFD",
"|@	c #FBFBFB",
"1@	c #7F654F",
"2@	c #572E0C",
"3@	c #3F2611",
"4@	c #39220F",
"5@	c #41362E",
"6@	c #000003",
"7@	c #626157",
"8@	c #C9C9CA",
"9@	c #F5F5F5",
"0@	c #EBEBEB",
"a@	c #4C3B2C",
"b@	c #38210F",
"c@	c #312317",
"d@	c #0E0D0D",
"e@	c #7D7602",
"f@	c #D0C304",
"g@	c #ECDF05",
"h@	c #DBCE05",
"i@	c #989014",
"j@	c #9A9882",
"k@	c #E4E4E4",
"l@	c #98968F",
"m@	c #666357",
"n@	c #20201B",
"o@	c #888103",
"p@	c #C5BA04",
"q@	c #E4D705",
"r@	c #ABA76F",
"s@	c #DADADA",
"t@	c #F4F4F4",
"u@	c #E8E8E3",
"v@	c #AFA950",
"w@	c #C2B608",
"x@	c #E4D706",
"y@	c #EEE005",
"z@	c #DCCF04",
"A@	c #ACA303",
"B@	c #4B4601",
"C@	c #B5AB04",
"D@	c #EDDF05",
"E@	c #E9DC11",
"F@	c #949275",
"G@	c #BEBEBE",
"H@	c #B9B35B",
"I@	c #D6CA04",
"J@	c #BFB404",
"K@	c #807803",
"L@	c #A39903",
"M@	c #A99F03",
"N@	c #918803",
"O@	c #8B8202",
"P@	c #A19703",
"Q@	c #A59B03",
"R@	c #A69C03",
"S@	c #8A8203",
"T@	c #898103",
"U@	c #908803",
"                                  . + @                         ",
"                              # $ % & * = -                     ",
"                            ; > , ' ) ' ' ! ~                   ",
"                            { ] ' ^ ^ ' ' / (                   ",
"                          _ : < ' [ } | 1 2 3 4 5 6 7 8         ",
"                          9 0 a ' b c d e f g h i j k l         ",
"                          m n o p q r s t u v w x y z           ",
"                A n B C D E F G H I J K L M N O x P             ",
"            Q R S T U V W X Y Z `  ...+.@.#.$.%.&.*.            ",
"          =.-.;.>.T ,.'.=.).!.~.{.].^./.(._.%.:.<.              ",
"          U T m [.}.|.1.2.3.n 4.5.6.7.8.9.0.a.b.c.              ",
"          d.e.f.,.g.h.i.j.=.k.l.m.n.o.p.%.q.r.s.t.              ",
"          u.v.w.x.y.i.z.A.B.C.' ' ) D.O q.E.F.G.H.I.            ",
"          J.    K.L.M.N.O.P.' ' ' Q.R.q.:.S.T.U.V.W.X.          ",
"      Y.Z.`. +.+++@+0.#+$+$+%+%+%+x q.&+*+=+-+;+>+,+'+)+        ",
"    P !+~+{+{+{+]+]+]+]+]+]+]+]+^+/+(+_+3.e.:+<+V.W.[+}+        ",
"    |+1+2+3+4+5+6+7+:.:.:.:.:.:.8+T 9++ h.=.0+A.a+b+c+d+        ",
"                  e+' ' ' ' ' f+g+U |.h.h+i+j+k+l+m+n+o+        ",
"                  p+' ' ' ' ' ' q+f.r+s+t+u+2.v+W.w+x+y+        ",
"                z+' ' ' ' ' ' ' A+B+C+q.q.D+E+F+G+H+I+J+        ",
"                K+' ' ' ' ' ' ' L+M+N+q.q.q.O+P+Q+R+S+T+)+      ",
"                U+' ' ' ' ' ' ' ' V+W+X+q.%.q.Y+' ' ' Z+`+      ",
"                 @' ' ' ' ' ' ' ' ' ' .@:.q.x +@@@' ' #@$@      ",
"                %@' ' ' ' ' ' ' ' ' ' &@*@q.q.q.=@-@' ;@>@      ",
"                ,@' ' ' ' ' ' ' ' ' ' ' '@)@q.x q.!@~@{@]@      ",
"                ^@' ' ' ' ' ' ' ' ' ' ' ) /@:.q.]+^+(@_@:@K.K.  ",
"                  <@' ' ' ' [@}@' ' ' ' ' |@1@2@3@4@5@6@K.K.K.  ",
"                  7@8@9@' ' ' ' ' ' ' ' ' ' 0@a@b@c@d@K.K.K.    ",
"              e@f@g@h@i@j@~@' ' ' ' ' ' ' ' k@l@m@n@K.K.K.      ",
"            o@p@h@......q@r@s@t@' ' ' ' u@v@w@x@y@z@A@B@        ",
"              C@D@........E@F@G@| ~@' s@H@......q@I@J@D@        ",
"                  K@L@M@N@                O@P@Q@R@S@T@U@        "};
