/* XPM */
static char *acatapult_xpm[]={
"32 32 18 1",
"# c #000000",
"i c #402000",
"j c #404040",
"h c #406080",
"a c #40a0c0",
"p c #604000",
"o c #608080",
"n c #806040",
"g c #808040",
"m c #80a080",
"b c #80a0c0",
"c c #80c0c0",
"l c #a06040",
"f c #c0a040",
"e c #c0c080",
"k c #c0c0c0",
"d c #c0dcc0",
". c #ffffff",
".#############################..",
".#aaaaaaaabcdeefeddfghijhdgjd#..",
".#aaaaaaabbeefffeeeeekkkdddjj#..",
".#aaaaaaacceflffededfddddddmi#..",
".#aaaacbcmffllleeeeefdddddddn#..",
".#aaabbcdeflllfffelfedddddddm#..",
".#abcabbefflllllllleddddddddb#..",
".#cbojmmkeeflffllfedddddddccb#..",
".#bjijgmbeeellfeedddddddddcba#..",
".#jiiingkkeffkddddddddddccaaa#..",
".#jjiijncdfkkddddddddddccaaaa#..",
".#pnpiijgbckddkdddddddcbaaaaa#..",
".#jjpiiiokdddddddddcccaaaaaaa#..",
".#kjiiiimddddcdcdccccbaaaaaaa#..",
".#dkniiimddddcdcbaccaaaaaaaaa#..",
".#ddkminmddcccbohjjmcaaaaaaaa#..",
".#kmkdnjmdccdcajjnnpbaaaaaaaa#..",
".#dmokmnodccbboipgnnbaaaaaaao#..",
".#njigkjobcccbaipllnabaaaaaaa#..",
".#nipgboobcbcbbiigloaaaaaaaaa#..",
".#njnmkojbbbbcbhiplhmbaaaaaao#..",
".#pijngpjgogomoiijpjjgoaaoaaa#..",
".#iiiiiiijiiiiiiiiiiihhaaaaaa#..",
".#iiinooinoooojiiijpjbabaaoaa#..",
".#iiiccbjncccdoinjjlmbbaaaaoh#..",
".#inpmcchjccdcjippjlmcbaaoaoo#..",
".#iligdcajmddcjinpjlgcbaahaho#..",
".#ppigkdmjmddcippiilgcbaohoho#..",
".#ppilmdcjmdcmiiliignbbahohoh#..",
".#piingddhgdkhiiliilnmaaohhhh#..",
".#lgiilkdonccjipnjinlgohhhhhh#..",
".#############################.."};
