/* XPM */
static char * catapult_xpm[] = {
"32 32 18 1",
" 	c None",
".	c #000000",
"+	c #40A0C0",
"@	c #80A0C0",
"#	c #80C0C0",
"$	c #C0DCC0",
"%	c #C0C080",
"&	c #C0A040",
"*	c #A06040",
"=	c #80A080",
"-	c #608080",
";	c #404040",
">	c #C0C0C0",
",	c #402000",
"'	c #808040",
")	c #806040",
"!	c #604000",
"~	c #406080",
"................................",
".++++++++++@#$%%&%$$&$$$$$$$#@+.",
".+++++++++@@%%&&&%%%%%$$$$$$##+.",
".+++++++++##%&*&&%$%$&$$$$$$$#+.",
".++++++#@#=&&***%%%%%&$$$$$$$#+.",
".+++++@@#$%&***&&&%*&%$$$$$$$#+.",
".+++@#+@@%&&********%$$$$$$$$@+.",
".++#@-;==>%%&*&&**&%$$$$$$$##@+.",
".+@@;,;'=@%%%**&%%$$$$$$$$$#@++.",
".+@;,,,)'>>%&&>$$$$$$$$$$##++++.",
".@=;;,,;)#$&>>$$$$$$$$$$##+++++.",
".#=!)!,,;'@#>$$>$$$$$$$#@++++++.",
".#>;;!,,,->$$$$$$$$$###++++++++.",
".>$>;,,,,=$$$$#$#$####@++++++++.",
".$$$>),,,=$$$$#$#@+##++++++++++.",
".$>$$>=,)=$$###@-~;;=#+++++++++.",
".$$>=>$);=$##$#+;;))!@+++++++++.",
".$$$=->=)-$##@@-,!'))@+++++++-+.",
".$>);,'>;-@###@+,!**)+@++++++++.",
".$=),!'@--@#@#@@,,'*-++++++++++.",
".>=);)=>-;@@@@#@~,!*~=@++++++-+.",
".=;!,;)'!;'-'-=-,,;!;;'-++-++++.",
".~,,,,,,,,;,,,,,,,,,,,~~+++++++.",
".-;,,,)--,)----;,,,;!;@+@++-+++.",
".#=,,,##@;)###$-,);;*=@@++++-~+.",
".#=,)!=##~;##$#;,!!;*=#@++-+--+.",
".#',*,'$#+;=$$#;,)!;*'#@++~+~-+.",
".#,!!,'>$=;=$$#,!!,,*'#@+-~-~-+.",
".=,!!,*=$#;=$#=,,*,,')@@+~-~-~-.",
".;,!,,)'$$~'$>~,,*,,*)=++-~~~~~.",
".,,*',,*>$-)##;,!);,)*'-~~~~~~~.",
"................................"};
